# AST/ASF file generated using VICON BodyLanguage
# -----------------------------------------------
:version 1.10
:name VICON
:units
  mass 1.0
  length 0.45
  angle deg
:documentation
   .ast/.asf automatically generated from VICON data using
   VICON BodyBuilder and BodyLanguage model FoxedUp or BRILLIANT.MOD
:root
   order TX TY TZ RX RY RZ
   axis XYZ
   position 0 0 0  
   orientation 0 0 0 
:bonedata
  begin
     id 1 
     name lhipjoint
     direction 0.645893 -0.654526 0.392961 
     length 2.38111 
     axis 0 0 0  XYZ
  end
  begin
     id 2 
     name lfemur
     direction 0.34202 -0.939693 0  
     length 6.6822  
     axis 0 0 20  XYZ
    dof rx ry rz
    limits (-160.0 20.0)
           (-70.0 70.0)
           (-60.0 70.0)
  end
  begin
     id 3 
     name ltibia
     direction 0.34202 -0.939693 0   
     length 6.93904   
     axis 0 0 20   XYZ
    dof rx
    limits (-10.0 170.0)
  end
  begin
     id 4 
     name lfoot
     direction 0.0694967 -0.190941 0.979138   
     length 2.13616   
     axis -90 7.62852e-016 20   XYZ
    dof rx rz
    limits (-45.0 90.0)
           (-70.0 20.0)
  end
  begin
     id 5 
     name ltoes
     direction 1.535e-011 -4.2202e-011 1   
     length 1.07536   
     axis -90 7.62852e-016 20   XYZ
    dof rx
    limits (-90.0 20.0)
  end
  begin
     id 6 
     name rhipjoint
     direction -0.700219 -0.612087 0.367481   
     length 2.54621  
     axis 0 0 0  XYZ 
  end
  begin
     id 7 
     name rfemur
     direction -0.34202 -0.939693 0   
     length 6.55353   
     axis 0 0 -20   XYZ
    dof rx ry rz
    limits (-160.0 20.0)
           (-70.0 70.0)
           (-70.0 60.0)
  end
  begin
     id 8 
     name rtibia
     direction -0.34202 -0.939693 0   
     length 6.8736   
     axis 0 0 -20   XYZ
    dof rx
    limits (-10.0 170.0)
 end
 begin
     id 9 
     name rfoot
     direction -0.0679995 -0.186827 0.980037   
     length 2.1218  
     axis -90 -7.62852e-016 -20   XYZ
    dof rx rz
    limits (-45.0 90.0)
           (-20.0 70.0)
  end
  begin
     id 10 
     name rtoes
     direction -1.53589e-011 -4.21772e-011 1   
     length 1.06864   
     axis -90 -7.62852e-016 -20   XYZ
    dof rx
    limits (-90.0 20.0)
  end
  begin
     id 11 
     name lowerback
     direction -0.0416607 0.996347 -0.0745409   
     length 2.12205   
     axis 0 0 0   XYZ
    dof rx ry rz
    limits (-20.0 45.0)
           (-30.0 30.0)
           (-30.0 30.0)
  end
  begin
     id 12 
     name upperback
     direction -0.000153993 0.999276 -0.0380568   
     length 2.12759   
     axis 0 0 0   XYZ
    dof rx ry rz
    limits (-20.0 45.0)
           (-30.0 30.0)
           (-30.0 30.0)
  end
  begin
     id 13 
     name thorax
     direction 0.0187671 0.999821 -0.00241421   
     length 2.13704   
     axis 0 0 0   XYZ
    dof rx ry rz
    limits (-20.0 45.0)
           (-30.0 30.0)
           (-30.0 30.0)
  end
  begin
     id 14 
     name lowerneck
     direction 0.0268157 0.964865 0.261374   
     length 1.65253   
     axis 0 0 0   XYZ
    dof rx ry rz
    limits (-20.0 45.0)
           (-30.0 30.0)
           (-30.0 30.0)
  end
  begin
     id 15 
     name upperneck
     direction 0.00263774 0.939908 -0.341418   
     length 1.72375   
     axis 0 0 0   XYZ
    dof rx ry rz
    limits (-20.0 45.0)
           (-30.0 30.0)
           (-30.0 30.0)
  end
  begin
     id 16
     name head
     direction -0.00526001 0.989001 -0.147818  
     length 1.74878  
     axis 0 0 0   XYZ
    dof rx ry rz
    limits (-20.0 45.0)
           (-30.0 30.0)
           (-30.0 30.0)
  end
  begin
     id 17 
     name lclavicle
     direction 0.881214 0.461162 -0.103884  
     length 3.25108  
     axis 0 0 0   XYZ
    dof ry rz
    limits (-20.0 10.0)
           (0.0 20.0)
  end
  begin
     id 18 
     name lhumerus
     direction 1 -4.4899e-011 3.38092e-027   
     length 4.87408   
     axis 180 -30 -90   XYZ
    dof rx ry rz
    limits (-60.0 90.0)
           (-90.0 90.0)
           (-90.0 90.0)
  end
  begin
     id 19
     name lradius
     direction 1 -4.48931e-011 9.96288e-027   
     length 2.76729   
     axis 180 -30 -90   XYZ
    dof rx
    limits (-10.0 170.0)
  end
  begin
     id 20
     name lwrist
     direction 1 -4.4896e-011 1.50617e-026   
     length 1.38364   
     axis -9.31234e-015 90 90   XYZ
    dof ry
    limits (-180.0 0.0)
 end
  begin
     id 21 
     name lhand
     direction 1 -4.49038e-011 3.01286e-026   
     length 0.98922   
     axis -1.92217e-014 90 90   XYZ
    dof rx rz
    limits (-90.0 90.0)
           (-45.0 45.0)
  end
  begin
     id 22 
     name lfingers
     direction 1 -4.49051e-011 6.02588e-026   
     length 0.797535   
     axis -3.84436e-014 90 90   XYZ
    dof rx
    limits (0.0 90.0)
  end
  begin
     id 23
     name lthumb
     direction 0.707107 -6.34901e-011 0.707107   
     length 1.14511   
     axis -90 45 2.19363e-014   XYZ
    dof rx rz
    limits (-45.0 45.0)
           (-45.0 45.0)
  end
  begin
     id 24 
     name rclavicle
     direction -0.893894 0.441652 -0.0767889   
     length 3.29361  
     axis 0 0 0   XYZ 
    dof ry rz
    limits (-10.0 20.0)
           (-20.0 0.0)
  end
  begin
     id 25 
     name rhumerus
     direction -1 -4.48945e-011 8.0491e-028  
     length 4.71404   
     axis 180 30 90   XYZ
    dof rx ry rz
    limits (-90.0 60.0)
           (-90.0 90.0)
           (-90.0 90.0)
  end
  begin
     id 26 
     name rradius
     direction -1 -4.48986e-011 9.27795e-027   
     length 2.83468   
     axis 180 30 90   XYZ
    dof rx
    limits (-10.0 170.0)
  end
  begin
     id 27 
     name rwrist
     direction -1 -4.49029e-011 1.5064e-026   
     length 1.41734   
     axis -9.31234e-015 -90 -90   XYZ
    dof ry
    limits (-180.0 0.0)
  end
  begin
     id 28
     name rhand
     direction -1 -4.48857e-011 3.01165e-026   
     length 0.868195   
     axis -1.92217e-014 -90 -90   XYZ
    dof rx rz
    limits (-90.0 90.0)
           (-45.0 45.0)
  end
  begin
     id 29
     name rfingers
     direction -1 -4.49048e-011 6.02585e-026   
     length 0.699961   
     axis -3.84436e-014 -90 -90   XYZ
    dof rx
    limits (0.0 90.0)
  end
  begin
     id 30
     name rthumb
     direction -0.707107 -6.34854e-011 0.707107   
     length 1.00501   
     axis -90 -45 -2.19363e-014   XYZ
    dof rx rz
    limits (-45.0 45.0)
           (-45.0 45.0)
  end
:hierarchy
  begin
    root lhipjoint rhipjoint lowerback
    lhipjoint lfemur
    lfemur ltibia
    ltibia lfoot
    lfoot ltoes
    rhipjoint rfemur
    rfemur rtibia
    rtibia rfoot
    rfoot rtoes
    lowerback upperback
    upperback thorax
    thorax lowerneck lclavicle rclavicle
    lowerneck upperneck
    upperneck head
    lclavicle lhumerus
    lhumerus lradius
    lradius lwrist
    lwrist lhand lthumb
    lhand lfingers
    rclavicle rhumerus
    rhumerus rradius
    rradius rwrist
    rwrist rhand rthumb
    rhand rfingers
  end

#!OML:ASF H:\ManfredObstacles\Project 1\Capture day 2\Session 1\male.ASF
:FULLY-SPECIFIED
:DEGREES
95
root 1.47314 15.2697 12.9822 -166.551 -0.229249 -180.541
lowerback 1.05299 -2.41419 -3.52733
upperback 2.76032 -3.32445 1.1312
thorax 2.51686 -1.79422 3.0908
lowerneck -34.8622 0.674669 4.13768
upperneck 40.2762 1.66852 -1.68341
head 23.6767 1.72528 -0.920998
rclavicle 3.13086e-015 6.95746e-016
rhumerus -42.6525 -6.94226 -80.6413
rradius 50.5923
rwrist 12.303
rhand -4.61411 -10.5044
rfingers 7.12502
rthumb 21.1641 -39.3692
lclavicle 3.13086e-015 6.95746e-016
lhumerus -34.3983 -18.5736 91.6319
lradius 63.465
lwrist -22.6308
lhand -3.65369 6.91201
lfingers 7.12502
lthumb 22.0865 35.6706
rfemur -33.6743 4.2153 23.6429
rtibia 48.9146
rfoot -14.6081 -20.5279
rtoes -17.5883
lfemur -8.00258 -0.871144 -21.6447
ltibia 62.515
lfoot 22.3659 5.28477
ltoes -3.98367
96
root 1.48374 15.2694 12.7604 -166.586 -0.0318662 -180.339
lowerback 1.10636 -2.23648 -3.24685
upperback 2.77925 -3.08923 1.0521
thorax 2.46652 -1.66922 2.85916
lowerneck -34.8448 0.688544 4.18499
upperneck 40.2582 1.69915 -1.74853
head 23.659 1.7356 -0.956683
rclavicle 6.83819e-014 -6.36111e-015
rhumerus -41.5859 -5.46928 -81.7678
rradius 52.3079
rwrist 11.847
rhand -4.70927 -10.2826
rfingers 7.12502
rthumb 21.0727 -39.1576
lclavicle 6.83819e-014 -6.36111e-015
lhumerus -35.7074 -18.7321 91.6079
lradius 64.1048
lwrist -22.6537
lhand -4.09659 6.94214
lfingers 7.12502
lthumb 21.6612 35.7504
rfemur -32.6015 4.33546 23.9908
rtibia 48.7583
rfoot -14.723 -20.7431
rtoes -18.4826
lfemur -9.75107 -0.601192 -21.4094
ltibia 65.0569
lfoot 21.3754 6.4472
ltoes -4.42747
97
root 1.49337 15.2743 12.5396 -166.572 0.114051 -180.193
lowerback 1.13771 -2.1861 -3.00536
upperback 2.77122 -2.84118 0.958351
thorax 2.40805 -1.46248 2.6363
lowerneck -34.8458 0.678153 4.17976
upperneck 40.268 1.71791 -1.78514
head 23.67 1.73933 -0.969421
rclavicle -1.21259e-014 -3.97569e-015
rhumerus -40.5341 -3.9634 -82.8314
rradius 54.0587
rwrist 11.4776
rhand -4.7707 -10.0715
rfingers 7.12502
rthumb 21.0137 -38.953
lclavicle -1.21259e-014 -3.97569e-015
lhumerus -37.0816 -18.9035 91.5824
lradius 64.8211
lwrist -22.7202
lhand -4.5402 7.00565
lfingers 7.12502
lthumb 21.2351 35.8625
rfemur -31.557 4.42188 24.2614
rtibia 48.5405
rfoot -14.7585 -20.9178
rtoes -19.3966
lfemur -11.5979 -0.428313 -21.2304
ltibia 67.4401
lfoot 20.3127 7.55635
ltoes -4.96041
98
root 1.50193 15.2849 12.3196 -166.516 0.222664 -180.101
lowerback 1.14222 -2.02385 -2.806
upperback 2.74361 -2.62529 0.863889
thorax 2.34735 -1.34825 2.43186
lowerneck -34.8169 0.606555 4.05085
upperneck 40.3123 1.69361 -1.73764
head 23.6934 1.72352 -0.92329
rclavicle 3.05631e-014 -5.96354e-015
rhumerus -39.4827 -2.44504 -83.8131
rradius 55.8269
rwrist 11.1979
rhand -4.82712 -9.88088
rfingers 7.12502
rthumb 20.9595 -38.7684
lclavicle 3.05631e-014 -5.96354e-015
lhumerus -38.4989 -19.0987 91.5666
lradius 65.6176
lwrist -22.789
lhand -4.98634 7.09784
lfingers 7.12502
lthumb 20.8065 36.0022
rfemur -30.5334 4.48858 24.4527
rtibia 48.2566
rfoot -14.7182 -21.0426
rtoes -20.3522
lfemur -13.5256 -0.347728 -21.1129
ltibia 69.6408
lfoot 19.1922 8.65889
ltoes -5.4288
99
root 1.50985 15.3014 12.0995 -166.432 0.295017 -180.045
lowerback 1.13089 -1.85557 -2.63033
upperback 2.70144 -2.40172 0.75813
thorax 2.28296 -1.23092 2.22856
lowerneck -34.8604 0.492333 3.84304
upperneck 40.4037 1.62788 -1.6319
head 23.7798 1.69096 -0.841141
rclavicle 2.16178e-014 -8.15017e-015
rhumerus -38.482 -0.97473 -84.7127
rradius 57.6506
rwrist 10.9665
rhand -4.88141 -9.70403
rfingers 7.12502
rthumb 20.9074 -38.5973
lclavicle 2.16178e-014 -8.15017e-015
lhumerus -39.9554 -19.3362 91.5463
lradius 66.4908
lwrist -22.8168
lhand -5.43157 7.18069
lfingers 7.12502
lthumb 20.3787 36.1314
rfemur -29.5042 4.54579 24.5878
rtibia 47.8955
rfoot -14.5911 -21.1175
rtoes -21.3106
lfemur -15.5107 -0.337857 -21.0325
ltibia 71.6365
lfoot 18.0477 9.72551
ltoes -5.84548
100
root 1.51713 15.3238 11.8789 -166.33 0.352253 -180.012
lowerback 1.10984 -1.66839 -2.47039
upperback 2.64836 -2.15321 0.644723
thorax 2.21407 -1.10167 2.02611
lowerneck -34.8897 0.342383 3.59397
upperneck 40.4962 1.5221 -1.50065
head 23.8597 1.64205 -0.748204
rclavicle 2.88238e-015 1.98785e-016
rhumerus -37.5476 0.420352 -85.5196
rradius 59.5273
rwrist 10.7874
rhand -4.94634 -9.49647
rfingers 7.12502
rthumb 20.845 -38.3967
lclavicle 2.88238e-015 1.98785e-016
lhumerus -41.4479 -19.6364 91.5406
lradius 67.4531
lwrist -22.7303
lhand -5.85278 7.27302
lfingers 7.12502
lthumb 19.9739 36.2665
rfemur -28.4521 4.61206 24.681
rtibia 47.4476
rfoot -14.3601 -21.14
rtoes -22.276
lfemur -17.5216 -0.374629 -20.9769
ltibia 73.4036
lfoot 16.9145 10.7628
ltoes -6.20899
